<svg width="30" height="30" viewBox="0 0 30 30" fill="none" xmlns="http://www.w3.org/2000/svg">
<path d="M27.8332 23.1667C27.8332 23.7855 27.5873 24.379 27.1498 24.8166C26.7122 25.2542 26.1187 25.5 25.4998 25.5H4.49984C3.881 25.5 3.28751 25.2542 2.84992 24.8166C2.41234 24.379 2.1665 23.7855 2.1665 23.1667V10.3333C2.1665 9.71449 2.41234 9.121 2.84992 8.68342C3.28751 8.24583 3.881 8 4.49984 8H9.1665L11.4998 4.5H18.4998L20.8332 8H25.4998C26.1187 8 26.7122 8.24583 27.1498 8.68342C27.5873 9.121 27.8332 9.71449 27.8332 10.3333V23.1667Z" stroke="white" stroke-width="2" stroke-linecap="round" stroke-linejoin="round"/>
<path d="M15.0002 20.8333C17.5775 20.8333 19.6668 18.744 19.6668 16.1667C19.6668 13.5893 17.5775 11.5 15.0002 11.5C12.4228 11.5 10.3335 13.5893 10.3335 16.1667C10.3335 18.744 12.4228 20.8333 15.0002 20.8333Z" stroke="white" stroke-width="2" stroke-linecap="round" stroke-linejoin="round"/>
</svg>
