<svg width="17" height="17" viewBox="0 0 17 17" fill="none" xmlns="http://www.w3.org/2000/svg">
<path fill-rule="evenodd" clip-rule="evenodd" d="M8.5 17C13.1944 17 17 13.1944 17 8.5C17 3.80558 13.1944 0 8.5 0C3.80558 0 0 3.80558 0 8.5C0 13.1944 3.80558 17 8.5 17ZM13.2337 6.97078C13.6242 6.58025 13.6242 5.94709 13.2337 5.55657C12.8431 5.16604 12.21 5.16604 11.8194 5.55657L7.60549 9.77051L6.07576 8.24078C5.68524 7.85025 5.05207 7.85025 4.66155 8.24078C4.27102 8.6313 4.27102 9.26446 4.66155 9.65499L6.89839 11.8918C7.08592 12.0794 7.34028 12.1847 7.60549 12.1847C7.87071 12.1847 8.12506 12.0794 8.3126 11.8918L13.2337 6.97078Z" fill="#6068D2"/>
</svg>
