<svg width="14" height="14" viewBox="0 0 14 14" fill="none" xmlns="http://www.w3.org/2000/svg">
<path d="M9.33301 2.3335H10.4997C10.8091 2.3335 11.1058 2.45641 11.3246 2.6752C11.5434 2.894 11.6663 3.19074 11.6663 3.50016V11.6668C11.6663 11.9762 11.5434 12.273 11.3246 12.4918C11.1058 12.7106 10.8091 12.8335 10.4997 12.8335H3.49967C3.19026 12.8335 2.89351 12.7106 2.67472 12.4918C2.45592 12.273 2.33301 11.9762 2.33301 11.6668V3.50016C2.33301 3.19074 2.45592 2.894 2.67472 2.6752C2.89351 2.45641 3.19026 2.3335 3.49967 2.3335H4.66634" stroke="#A5A5AE" stroke-width="1.5" stroke-linecap="round" stroke-linejoin="round"/>
<path d="M8.75033 1.1665H5.25033C4.92816 1.1665 4.66699 1.42767 4.66699 1.74984V2.9165C4.66699 3.23867 4.92816 3.49984 5.25033 3.49984H8.75033C9.07249 3.49984 9.33366 3.23867 9.33366 2.9165V1.74984C9.33366 1.42767 9.07249 1.1665 8.75033 1.1665Z" stroke="#A5A5AE" stroke-width="1.5" stroke-linecap="round" stroke-linejoin="round"/>
</svg>
