<svg width="14" height="14" viewBox="0 0 14 14" fill="none" xmlns="http://www.w3.org/2000/svg">
<path d="M1.75 3.5H2.91667H12.25" stroke="#A5A5AE" stroke-width="1.5" stroke-linecap="round" stroke-linejoin="round"/>
<path d="M4.66699 3.50033V2.33366C4.66699 2.02424 4.78991 1.72749 5.0087 1.5087C5.22749 1.28991 5.52424 1.16699 5.83366 1.16699H8.16699C8.47641 1.16699 8.77316 1.28991 8.99195 1.5087C9.21074 1.72749 9.33366 2.02424 9.33366 2.33366V3.50033M11.0837 3.50033V11.667C11.0837 11.9764 10.9607 12.2732 10.742 12.492C10.5232 12.7107 10.2264 12.8337 9.91699 12.8337H4.08366C3.77424 12.8337 3.47749 12.7107 3.2587 12.492C3.03991 12.2732 2.91699 11.9764 2.91699 11.667V3.50033H11.0837Z" stroke="#A5A5AE" stroke-width="1.5" stroke-linecap="round" stroke-linejoin="round"/>
<path d="M5.83301 6.41699V9.91699" stroke="#A5A5AE" stroke-width="1.5" stroke-linecap="round" stroke-linejoin="round"/>
<path d="M8.16699 6.41699V9.91699" stroke="#A5A5AE" stroke-width="1.5" stroke-linecap="round" stroke-linejoin="round"/>
</svg>
